<svg width="88" height="15" viewBox="0 0 88 15" fill="none" xmlns="http://www.w3.org/2000/svg">
<path d="M10.1983 1.436V3.47H6.85025V14H4.33025V3.47H0.98225V1.436H10.1983ZM16.4649 14.162C15.5049 14.162 14.6409 13.952 13.8729 13.532C13.1049 13.1 12.4989 12.494 12.0549 11.714C11.6229 10.934 11.4069 10.034 11.4069 9.014C11.4069 7.994 11.6289 7.094 12.0729 6.314C12.5289 5.534 13.1469 4.934 13.9269 4.514C14.7069 4.082 15.5769 3.866 16.5369 3.866C17.4969 3.866 18.3669 4.082 19.1469 4.514C19.9269 4.934 20.5389 5.534 20.9829 6.314C21.4389 7.094 21.6669 7.994 21.6669 9.014C21.6669 10.034 21.4329 10.934 20.9649 11.714C20.5089 12.494 19.8849 13.1 19.0929 13.532C18.3129 13.952 17.4369 14.162 16.4649 14.162ZM16.4649 11.966C16.9209 11.966 17.3469 11.858 17.7429 11.642C18.1509 11.414 18.4749 11.078 18.7149 10.634C18.9549 10.19 19.0749 9.65 19.0749 9.014C19.0749 8.066 18.8229 7.34 18.3189 6.836C17.8269 6.32 17.2209 6.062 16.5009 6.062C15.7809 6.062 15.1749 6.32 14.6829 6.836C14.2029 7.34 13.9629 8.066 13.9629 9.014C13.9629 9.962 14.1969 10.694 14.6649 11.21C15.1449 11.714 15.7449 11.966 16.4649 11.966ZM32.9294 4.028V14H30.3914V12.74C30.0674 13.172 29.6414 13.514 29.1134 13.766C28.5974 14.006 28.0334 14.126 27.4214 14.126C26.6414 14.126 25.9514 13.964 25.3514 13.64C24.7514 13.304 24.2774 12.818 23.9294 12.182C23.5934 11.534 23.4254 10.766 23.4254 9.878V4.028H25.9454V9.518C25.9454 10.31 26.1434 10.922 26.5394 11.354C26.9354 11.774 27.4754 11.984 28.1594 11.984C28.8554 11.984 29.4014 11.774 29.7974 11.354C30.1934 10.922 30.3914 10.31 30.3914 9.518V4.028H32.9294ZM37.9358 5.576C38.2598 5.048 38.6798 4.634 39.1958 4.334C39.7238 4.034 40.3238 3.884 40.9958 3.884V6.53H40.3298C39.5378 6.53 38.9378 6.716 38.5298 7.088C38.1338 7.46 37.9358 8.108 37.9358 9.032V14H35.4158V4.028H37.9358V5.576Z" fill="white"/>
<path d="M49.8212 7.556C50.5292 7.688 51.1112 8.042 51.5672 8.618C52.0232 9.194 52.2512 9.854 52.2512 10.598C52.2512 11.27 52.0832 11.864 51.7472 12.38C51.4232 12.884 50.9492 13.28 50.3252 13.568C49.7012 13.856 48.9632 14 48.1112 14H42.6932V1.436H47.8772C48.7292 1.436 49.4612 1.574 50.0732 1.85C50.6972 2.126 51.1652 2.51 51.4772 3.002C51.8012 3.494 51.9632 4.052 51.9632 4.676C51.9632 5.408 51.7652 6.02 51.3692 6.512C50.9852 7.004 50.4692 7.352 49.8212 7.556ZM45.2132 6.62H47.5172C48.1172 6.62 48.5792 6.488 48.9032 6.224C49.2272 5.948 49.3892 5.558 49.3892 5.054C49.3892 4.55 49.2272 4.16 48.9032 3.884C48.5792 3.608 48.1172 3.47 47.5172 3.47H45.2132V6.62ZM47.7512 11.948C48.3632 11.948 48.8372 11.804 49.1732 11.516C49.5212 11.228 49.6952 10.82 49.6952 10.292C49.6952 9.752 49.5152 9.332 49.1552 9.032C48.7952 8.72 48.3092 8.564 47.6972 8.564H45.2132V11.948H47.7512ZM53.6116 8.978C53.6116 7.97 53.8096 7.076 54.2056 6.296C54.6136 5.516 55.1596 4.916 55.8436 4.496C56.5396 4.076 57.3136 3.866 58.1656 3.866C58.9096 3.866 59.5576 4.016 60.1096 4.316C60.6736 4.616 61.1236 4.994 61.4596 5.45V4.028H63.9976V14H61.4596V12.542C61.1356 13.01 60.6856 13.4 60.1096 13.712C59.5456 14.012 58.8916 14.162 58.1476 14.162C57.3076 14.162 56.5396 13.946 55.8436 13.514C55.1596 13.082 54.6136 12.476 54.2056 11.696C53.8096 10.904 53.6116 9.998 53.6116 8.978ZM61.4596 9.014C61.4596 8.402 61.3396 7.88 61.0996 7.448C60.8596 7.004 60.5356 6.668 60.1276 6.44C59.7196 6.2 59.2816 6.08 58.8136 6.08C58.3456 6.08 57.9136 6.194 57.5176 6.422C57.1216 6.65 56.7976 6.986 56.5456 7.43C56.3056 7.862 56.1856 8.378 56.1856 8.978C56.1856 9.578 56.3056 10.106 56.5456 10.562C56.7976 11.006 57.1216 11.348 57.5176 11.588C57.9256 11.828 58.3576 11.948 58.8136 11.948C59.2816 11.948 59.7196 11.834 60.1276 11.606C60.5356 11.366 60.8596 11.03 61.0996 10.598C61.3396 10.154 61.4596 9.626 61.4596 9.014ZM71.9848 3.884C73.1728 3.884 74.1328 4.262 74.8648 5.018C75.5968 5.762 75.9628 6.806 75.9628 8.15V14H73.4428V8.492C73.4428 7.7 73.2448 7.094 72.8488 6.674C72.4528 6.242 71.9128 6.026 71.2288 6.026C70.5328 6.026 69.9808 6.242 69.5728 6.674C69.1768 7.094 68.9788 7.7 68.9788 8.492V14H66.4588V4.028H68.9788V5.27C69.3148 4.838 69.7408 4.502 70.2568 4.262C70.7848 4.01 71.3608 3.884 71.9848 3.884ZM84.2632 14L80.8792 9.752V14H78.3592V0.68H80.8792V8.258L84.2272 4.028H87.5032L83.1112 9.032L87.5392 14H84.2632Z" fill="#5CE1E6"/>
</svg>
