<svg width="124" height="32" viewBox="0 0 124 32" fill="none" xmlns="http://www.w3.org/2000/svg">
<path d="M45.792 10.436V12.47H42.444V23H39.924V12.47H36.576V10.436H45.792ZM52.0587 23.162C51.0987 23.162 50.2347 22.952 49.4667 22.532C48.6987 22.1 48.0927 21.494 47.6487 20.714C47.2167 19.934 47.0007 19.034 47.0007 18.014C47.0007 16.994 47.2227 16.094 47.6667 15.314C48.1227 14.534 48.7407 13.934 49.5207 13.514C50.3007 13.082 51.1707 12.866 52.1307 12.866C53.0907 12.866 53.9607 13.082 54.7407 13.514C55.5207 13.934 56.1327 14.534 56.5767 15.314C57.0327 16.094 57.2607 16.994 57.2607 18.014C57.2607 19.034 57.0267 19.934 56.5587 20.714C56.1027 21.494 55.4787 22.1 54.6867 22.532C53.9067 22.952 53.0307 23.162 52.0587 23.162ZM52.0587 20.966C52.5147 20.966 52.9407 20.858 53.3367 20.642C53.7447 20.414 54.0687 20.078 54.3087 19.634C54.5487 19.19 54.6687 18.65 54.6687 18.014C54.6687 17.066 54.4167 16.34 53.9127 15.836C53.4207 15.32 52.8147 15.062 52.0947 15.062C51.3747 15.062 50.7687 15.32 50.2767 15.836C49.7967 16.34 49.5567 17.066 49.5567 18.014C49.5567 18.962 49.7907 19.694 50.2587 20.21C50.7387 20.714 51.3387 20.966 52.0587 20.966ZM68.5232 13.028V23H65.9852V21.74C65.6612 22.172 65.2352 22.514 64.7072 22.766C64.1912 23.006 63.6272 23.126 63.0152 23.126C62.2352 23.126 61.5452 22.964 60.9452 22.64C60.3452 22.304 59.8712 21.818 59.5232 21.182C59.1872 20.534 59.0192 19.766 59.0192 18.878V13.028H61.5392V18.518C61.5392 19.31 61.7372 19.922 62.1332 20.354C62.5292 20.774 63.0692 20.984 63.7532 20.984C64.4492 20.984 64.9952 20.774 65.3912 20.354C65.7872 19.922 65.9852 19.31 65.9852 18.518V13.028H68.5232ZM73.5296 14.576C73.8536 14.048 74.2736 13.634 74.7896 13.334C75.3176 13.034 75.9176 12.884 76.5896 12.884V15.53H75.9236C75.1316 15.53 74.5316 15.716 74.1236 16.088C73.7276 16.46 73.5296 17.108 73.5296 18.032V23H71.0096V13.028H73.5296V14.576Z" fill="white"/>
<path d="M85.4149 16.556C86.1229 16.688 86.7049 17.042 87.1609 17.618C87.6169 18.194 87.8449 18.854 87.8449 19.598C87.8449 20.27 87.6769 20.864 87.3409 21.38C87.0169 21.884 86.5429 22.28 85.9189 22.568C85.2949 22.856 84.5569 23 83.7049 23H78.2869V10.436H83.4709C84.3229 10.436 85.0549 10.574 85.6669 10.85C86.2909 11.126 86.7589 11.51 87.0709 12.002C87.3949 12.494 87.5569 13.052 87.5569 13.676C87.5569 14.408 87.3589 15.02 86.9629 15.512C86.5789 16.004 86.0629 16.352 85.4149 16.556ZM80.8069 15.62H83.1109C83.7109 15.62 84.1729 15.488 84.4969 15.224C84.8209 14.948 84.9829 14.558 84.9829 14.054C84.9829 13.55 84.8209 13.16 84.4969 12.884C84.1729 12.608 83.7109 12.47 83.1109 12.47H80.8069V15.62ZM83.3449 20.948C83.9569 20.948 84.4309 20.804 84.7669 20.516C85.1149 20.228 85.2889 19.82 85.2889 19.292C85.2889 18.752 85.1089 18.332 84.7489 18.032C84.3889 17.72 83.9029 17.564 83.2909 17.564H80.8069V20.948H83.3449ZM89.2053 17.978C89.2053 16.97 89.4033 16.076 89.7993 15.296C90.2073 14.516 90.7533 13.916 91.4373 13.496C92.1333 13.076 92.9073 12.866 93.7593 12.866C94.5033 12.866 95.1513 13.016 95.7033 13.316C96.2673 13.616 96.7173 13.994 97.0533 14.45V13.028H99.5913V23H97.0533V21.542C96.7293 22.01 96.2793 22.4 95.7033 22.712C95.1393 23.012 94.4853 23.162 93.7413 23.162C92.9013 23.162 92.1333 22.946 91.4373 22.514C90.7533 22.082 90.2073 21.476 89.7993 20.696C89.4033 19.904 89.2053 18.998 89.2053 17.978ZM97.0533 18.014C97.0533 17.402 96.9333 16.88 96.6933 16.448C96.4533 16.004 96.1293 15.668 95.7213 15.44C95.3133 15.2 94.8753 15.08 94.4073 15.08C93.9393 15.08 93.5073 15.194 93.1113 15.422C92.7153 15.65 92.3913 15.986 92.1393 16.43C91.8993 16.862 91.7793 17.378 91.7793 17.978C91.7793 18.578 91.8993 19.106 92.1393 19.562C92.3913 20.006 92.7153 20.348 93.1113 20.588C93.5193 20.828 93.9513 20.948 94.4073 20.948C94.8753 20.948 95.3133 20.834 95.7213 20.606C96.1293 20.366 96.4533 20.03 96.6933 19.598C96.9333 19.154 97.0533 18.626 97.0533 18.014ZM107.579 12.884C108.767 12.884 109.727 13.262 110.459 14.018C111.191 14.762 111.557 15.806 111.557 17.15V23H109.037V17.492C109.037 16.7 108.839 16.094 108.443 15.674C108.047 15.242 107.507 15.026 106.823 15.026C106.127 15.026 105.575 15.242 105.167 15.674C104.771 16.094 104.573 16.7 104.573 17.492V23H102.053V13.028H104.573V14.27C104.909 13.838 105.335 13.502 105.851 13.262C106.379 13.01 106.955 12.884 107.579 12.884ZM119.857 23L116.473 18.752V23H113.953V9.68H116.473V17.258L119.821 13.028H123.097L118.705 18.032L123.133 23H119.857Z" fill="#5CE1E6"/>
<path d="M16 0C12.8355 -3.77363e-08 9.74206 0.938383 7.11088 2.69649C4.47969 4.45459 2.42893 6.95345 1.21793 9.87706C0.00692588 12.8007 -0.309928 16.0177 0.307435 19.1214C0.924798 22.2251 2.44865 25.0761 4.68629 27.3137C6.92393 29.5513 9.77485 31.0752 12.8786 31.6926C15.9822 32.3099 19.1993 31.9931 22.1229 30.7821C25.0465 29.5711 27.5454 27.5203 29.3035 24.8891C31.0616 22.2579 32 19.1645 32 16L24 16C24 17.5823 23.5308 19.129 22.6518 20.4446C21.7727 21.7602 20.5233 22.7855 19.0615 23.391C17.5997 23.9965 15.9911 24.155 14.4393 23.8463C12.8874 23.5376 11.462 22.7757 10.3431 21.6569C9.22432 20.538 8.4624 19.1126 8.15372 17.5607C7.84504 16.0089 8.00346 14.4003 8.60896 12.9385C9.21447 11.4767 10.2398 10.2273 11.5554 9.34824C12.871 8.46919 14.4177 8 16 8L16 0Z" fill="white"/>
<path d="M16 0C13.8989 -2.5056e-08 11.8183 0.413852 9.87706 1.21793C7.93586 2.022 6.17203 3.20055 4.68629 4.68629C3.20055 6.17203 2.022 7.93586 1.21793 9.87707C0.413852 11.8183 -3.17265e-07 13.8989 0 16L8 16C8 14.9494 8.20693 13.9091 8.60896 12.9385C9.011 11.9679 9.60028 11.086 10.3431 10.3431C11.086 9.60028 11.9679 9.011 12.9385 8.60896C13.9091 8.20693 14.9494 8 16 8L16 0Z" fill="#5CE1E6"/>
<circle cx="16" cy="16" r="5" fill="#5CE1E6"/>
<path d="M21 16C21 15.3434 20.8707 14.6932 20.6194 14.0866C20.3681 13.48 19.9998 12.9288 19.5355 12.4645C19.0712 12.0002 18.52 11.6319 17.9134 11.3806C17.3068 11.1293 16.6566 11 16 11C15.3434 11 14.6932 11.1293 14.0866 11.3806C13.48 11.6319 12.9288 12.0002 12.4645 12.4645C12.0002 12.9288 11.6319 13.48 11.3806 14.0866C11.1293 14.6932 11 15.3434 11 16L16 16H21Z" fill="white"/>
</svg>
